<?xml version="1.0" encoding="UTF-8"?>
<svg id="Vrstva_2" data-name="Vrstva 2" xmlns="http://www.w3.org/2000/svg" viewBox="0 0 465.34 55.2">
  <defs>
    <style>
      .cls-1 {
        fill: #fff;
      }
    </style>
  </defs>
  <g id="Vrstva_1-2" data-name="Vrstva 1">
    <g>
      <g>
        <path class="cls-1" d="M76.22,52.72c-1.19,0-2.09-.24-2.72-.74-.62-.49-1.27-1.38-1.94-2.67l-16.36-30.93,10.39-12.01c.88-1.09,1.9-2,3.06-2.75,1.16-.75,2.29-1.13,3.37-1.13h2.72V0h-19.15v2.48h2.25c.83,0,1.5.31,2.01.93.52.62.78,1.4.78,2.33,0,.77-.15,1.46-.43,2.05-.28.6-.79,1.31-1.51,2.13l-11.73,13.3c-5.58,7.05-12.38,8.5-14.7,8.86v18.78c0,.67-.13,1.15-.39,1.44-.17.19-.43.31-.8.37-.2.03-.42.05-.68.05h-2.96v2.48h22.96v-2.48h-4.81c-.67,0-1.15-.14-1.44-.43-.28-.28-.43-.76-.43-1.44v-19.3l3.33-3.8,11.24,21.4c.1.21.19.51.27.89.08.39.12.74.12,1.05,0,.41-.15.79-.47,1.12-.31.34-.69.51-1.16.51h-3.1v2.48h24.34v-2.48h-2.09Z"/>
        <path class="cls-1" d="M19.19,52.29c-.28-.28-.43-.76-.43-1.44v-21.71h8.84c1.64,0,3.19-.13,4.66-.39,1.78-.31,3.45-.81,4.99-1.51,2.76-1.24,4.92-2.94,6.49-5.1.04-.04.07-.09.1-.14,1.58-2.22,2.37-4.76,2.37-7.6s-.79-5.28-2.37-7.48c-.03-.05-.07-.09-.1-.14-1.57-2.13-3.73-3.79-6.49-4.98-2.82-1.21-6.03-1.82-9.65-1.82H0v2.48h5.43c.72,0,1.21.13,1.47.39.26.26.39.75.39,1.47v46.51c0,.67-.13,1.15-.39,1.44-.26.28-.75.43-1.47.43H0v2.48h24.98v-2.48h-4.35c-.67,0-1.15-.14-1.44-.43ZM23.05,10.36c0-2.23,1.81-4.03,4.03-4.03s4.03,1.8,4.03,4.03c0,1.32-.64,2.5-1.63,3.23l1.63,8.86h-8.06l1.63-8.86c-.99-.73-1.63-1.91-1.63-3.23Z"/>
      </g>
      <g>
        <path class="cls-1" d="M113.96,27.39c-.92,1.63-2.29,2.93-4.14,3.91-1.85.98-4.1,1.46-6.77,1.46h-4.51v11.07h-9.12V11.04h13.63c2.63,0,4.88.47,6.72,1.4s3.23,2.22,4.16,3.86,1.4,3.53,1.4,5.67c0,1.98-.46,3.79-1.37,5.42ZM106.03,21.97c0-2.39-1.29-3.58-3.86-3.58h-3.63v7.12h3.63c2.57,0,3.86-1.18,3.86-3.54Z"/>
        <path class="cls-1" d="M118.98,23.69c.98-2.02,2.31-3.57,4-4.65,1.69-1.08,3.57-1.63,5.65-1.63,1.8,0,3.35.36,4.65,1.07,1.3.71,2.31,1.67,3.02,2.88v-3.63h9.12v26.09h-9.12v-3.63c-.71,1.21-1.73,2.17-3.05,2.88-1.32.71-2.86,1.07-4.63,1.07-2.08,0-3.96-.54-5.65-1.63-1.69-1.08-3.02-2.64-4-4.67-.98-2.03-1.46-4.4-1.46-7.09s.49-5.05,1.46-7.07ZM134.93,26.81c-.92-.96-2.04-1.44-3.37-1.44s-2.5.47-3.4,1.42-1.35,2.27-1.35,3.98.45,3,1.35,3.98c.9.98,2.03,1.47,3.4,1.47s2.46-.48,3.37-1.44c.92-.96,1.37-2.29,1.37-4s-.46-2.99-1.37-3.95Z"/>
        <path class="cls-1" d="M163.14,35.23l4.88-17.49h9.72l-8.98,26.09h-11.35l-8.98-26.09h9.72l4.98,17.49Z"/>
        <path class="cls-1" d="M189.93,9.41v34.42h-9.12V9.41h9.12Z"/>
        <path class="cls-1" d="M195.12,23.69c.98-2.02,2.31-3.57,4-4.65,1.69-1.08,3.57-1.63,5.65-1.63,1.8,0,3.35.36,4.65,1.07,1.3.71,2.31,1.67,3.02,2.88v-3.63h9.12v26.09h-9.12v-3.63c-.71,1.21-1.73,2.17-3.05,2.88-1.32.71-2.86,1.07-4.63,1.07-2.08,0-3.96-.54-5.65-1.63-1.69-1.08-3.02-2.64-4-4.67-.98-2.03-1.46-4.4-1.46-7.09s.49-5.05,1.46-7.07ZM211.07,26.81c-.92-.96-2.04-1.44-3.37-1.44s-2.5.47-3.4,1.42-1.35,2.27-1.35,3.98.45,3,1.35,3.98c.9.98,2.03,1.47,3.4,1.47s2.46-.48,3.37-1.44c.92-.96,1.37-2.29,1.37-4s-.46-2.99-1.37-3.95Z"/>
        <path class="cls-1" d="M246.17,43.83l-10.28-14.37v14.37h-9.12V11.04h9.12v14.14l10.19-14.14h10.51l-12.05,15.91,12.65,16.88h-11.02Z"/>
        <path class="cls-1" d="M287.24,17.74v26.09h-9.16v-3.72c-.78,1.18-1.85,2.13-3.21,2.86-1.36.73-2.93,1.09-4.7,1.09-3.04,0-5.44-1-7.19-3-1.75-2-2.63-4.72-2.63-8.16v-15.16h9.07v14c0,1.49.4,2.66,1.19,3.51.79.85,1.84,1.28,3.14,1.28s2.39-.43,3.16-1.28c.77-.85,1.16-2.02,1.16-3.51v-14h9.16Z"/>
        <path class="cls-1" d="M304.59,18.46c1.3-.7,2.84-1.05,4.6-1.05,2.08,0,3.96.54,5.65,1.63,1.69,1.09,3.02,2.64,4,4.65.98,2.02,1.46,4.37,1.46,7.07s-.49,5.06-1.46,7.09c-.98,2.03-2.31,3.59-4,4.67-1.69,1.09-3.57,1.63-5.65,1.63-1.77,0-3.3-.35-4.6-1.05-1.3-.7-2.31-1.67-3.02-2.91v3.63h-9.12V9.41h9.12v11.95c.71-1.24,1.72-2.21,3.02-2.91ZM309.68,26.78c-.92-.95-2.04-1.42-3.37-1.42s-2.46.48-3.37,1.44c-.92.96-1.37,2.28-1.37,3.95s.46,3.04,1.37,4c.91.96,2.04,1.44,3.37,1.44s2.46-.49,3.37-1.47c.91-.98,1.37-2.3,1.37-3.98s-.46-3.03-1.37-3.98Z"/>
        <path class="cls-1" d="M348.87,32.62h-17.26c.09,1.43.49,2.49,1.19,3.19.7.7,1.59,1.05,2.67,1.05,1.52,0,2.61-.68,3.26-2.05h9.72c-.4,1.8-1.19,3.4-2.35,4.81-1.16,1.41-2.63,2.52-4.4,3.33-1.77.81-3.72,1.21-5.86,1.21-2.57,0-4.86-.54-6.86-1.63-2-1.08-3.57-2.64-4.7-4.65-1.13-2.02-1.7-4.39-1.7-7.12s.56-5.09,1.67-7.09,2.67-3.54,4.67-4.63c2-1.08,4.3-1.63,6.91-1.63s4.85.53,6.84,1.58,3.54,2.57,4.65,4.53c1.12,1.97,1.67,4.29,1.67,6.95,0,.71-.05,1.43-.14,2.14ZM339.71,28.2c0-1.12-.37-1.99-1.12-2.63-.74-.64-1.67-.95-2.79-.95s-2.03.3-2.74.91c-.71.6-1.18,1.5-1.4,2.67h8.05Z"/>
        <path class="cls-1" d="M357.54,42.97c-1.85-.79-3.3-1.88-4.37-3.26-1.07-1.38-1.67-2.94-1.79-4.67h8.84c.12.84.51,1.49,1.16,1.95.65.47,1.46.7,2.42.7.74,0,1.33-.15,1.77-.47.43-.31.65-.71.65-1.21,0-.65-.36-1.13-1.07-1.44-.71-.31-1.89-.65-3.54-1.02-1.86-.37-3.41-.79-4.65-1.26-1.24-.47-2.32-1.22-3.23-2.28-.92-1.05-1.37-2.48-1.37-4.28,0-1.55.42-2.95,1.26-4.21.84-1.26,2.07-2.26,3.7-3s3.59-1.12,5.88-1.12c3.41,0,6.09.84,8.05,2.51,1.95,1.67,3.08,3.88,3.4,6.6h-8.23c-.16-.84-.52-1.48-1.09-1.93-.57-.45-1.34-.67-2.3-.67-.74,0-1.31.14-1.7.42-.39.28-.58.67-.58,1.16,0,.62.36,1.09,1.07,1.42.71.33,1.86.66,3.44,1,1.89.4,3.46.85,4.72,1.35,1.26.5,2.36,1.29,3.3,2.4.95,1.1,1.42,2.6,1.42,4.49,0,1.52-.44,2.88-1.33,4.09s-2.14,2.16-3.77,2.86c-1.63.7-3.54,1.05-5.74,1.05-2.36,0-4.46-.4-6.3-1.19ZM371.19,12.3l-7.4,3.58-7.49-3.58v-6.09l7.49,4.05,7.4-4.05v6.09Z"/>
        <path class="cls-1" d="M384.29,42.53c-2.06-1.08-3.68-2.64-4.86-4.65-1.18-2.02-1.77-4.39-1.77-7.12s.6-5.05,1.79-7.07c1.19-2.02,2.82-3.57,4.88-4.65,2.06-1.08,4.4-1.63,7-1.63s4.94.54,7,1.63c2.06,1.09,3.69,2.64,4.88,4.65,1.19,2.02,1.79,4.37,1.79,7.07s-.6,5.06-1.79,7.09c-1.19,2.03-2.83,3.59-4.91,4.67-2.08,1.09-4.42,1.63-7.02,1.63s-4.94-.54-7-1.63ZM394.47,34.83c.85-.95,1.28-2.3,1.28-4.07s-.43-3.12-1.28-4.05c-.85-.93-1.9-1.4-3.14-1.4s-2.28.46-3.12,1.4c-.84.93-1.26,2.28-1.26,4.05s.4,3.16,1.21,4.09,1.84,1.4,3.12,1.4,2.33-.47,3.19-1.42Z"/>
        <path class="cls-1" d="M421.24,35.23l4.88-17.49h9.72l-8.98,26.09h-11.35l-8.98-26.09h9.72l4.98,17.49Z"/>
        <path class="cls-1" d="M438.89,23.69c.98-2.02,2.31-3.57,4-4.65,1.69-1.08,3.57-1.63,5.65-1.63,1.8,0,3.35.36,4.65,1.07,1.3.71,2.31,1.67,3.02,2.88v-3.63h9.12v26.09h-9.12v-3.63c-.71,1.21-1.73,2.17-3.05,2.88-1.32.71-2.86,1.07-4.63,1.07-2.08,0-3.96-.54-5.65-1.63-1.69-1.08-3.02-2.64-4-4.67-.98-2.03-1.46-4.4-1.46-7.09s.49-5.05,1.46-7.07ZM458.03,11.41l-11.63,4.56v-6.19l11.63-5.26v6.88ZM454.85,26.81c-.92-.96-2.04-1.44-3.37-1.44s-2.5.47-3.4,1.42-1.35,2.27-1.35,3.98.45,3,1.35,3.98c.9.98,2.03,1.47,3.4,1.47s2.46-.48,3.37-1.44c.92-.96,1.37-2.29,1.37-4s-.46-2.99-1.37-3.95Z"/>
      </g>
    </g>
  </g>
</svg>